<svg xmlns="http://www.w3.org/2000/svg" width="1800" height="1050" viewBox="0 0 1800 1050">
<rect width="1800" height="1050" fill="#f2f4f7"/>
<defs><style>.head{font-family:Arial;font-size:26px;font-weight:700;fill:#fff}.title{font-family:Arial;font-size:30px;font-weight:700;fill:#17202a}.sub{font-family:Arial;font-size:18px;fill:#5b6872}.body{font-family:Arial;font-size:19px;fill:#27343e}.b{font-family:Arial;font-size:18px;font-weight:700;fill:#27343e}.small{font-family:Arial;font-size:16px;fill:#52616c}</style></defs>
<rect x="28" y="28" width="1744" height="84" rx="14" fill="#243746"/><text x="58" y="78" class="head">BAUSTELLENPLANER</text><text x="420" y="78" class="head">Projekt: Werkhalle Nord</text><text x="1430" y="78" class="head">Gespeichert ✓</text>
<rect x="28" y="132" width="330" height="875" rx="14" fill="#fff" stroke="#c6d0d8" stroke-width="2"/><text x="55" y="178" class="title">Räumliche Ansichten</text><text x="55" y="198" class="sub">Menü</text><rect x="45" y="205" width="300" height="46" rx="8" fill="#dbeaf5"/><text x="65" y="235" class="body">2D Top</text>
<rect x="45" y="263" width="300" height="46" rx="8" fill="#f0f3f6"/><text x="65" y="293" class="body">3D</text>
<rect x="45" y="321" width="300" height="46" rx="8" fill="#f0f3f6"/><text x="65" y="351" class="body">Front/Seite</text>
<rect x="45" y="379" width="300" height="46" rx="8" fill="#f0f3f6"/><text x="65" y="409" class="body">Schnitt</text>
<rect x="45" y="437" width="300" height="46" rx="8" fill="#f0f3f6"/><text x="65" y="467" class="body">Auswahl</text>
<rect x="45" y="495" width="300" height="46" rx="8" fill="#f0f3f6"/><text x="65" y="525" class="body">Ansichtsoptionen</text>
<rect x="382" y="132" width="750" height="875" rx="14" fill="#fff" stroke="#c6d0d8" stroke-width="2"/><text x="410" y="178" class="title">Ansicht wechseln</text><text x="410" y="207" class="sub">2D, 3D und Schnitte lesen dieselbe Szene</text><rect x="390" y="300" width="335" height="125" rx="12" fill="#f2f5f7" stroke="#cbd5dd" stroke-width="2"/><text x="408" y="334" class="b">2D Top</text><text x="408" y="368" class="small">erste Produktansicht</text><text x="408" y="395" class="small">maßstäblich</text>
<rect x="755" y="300" width="335" height="125" rx="12" fill="#f2f5f7" stroke="#cbd5dd" stroke-width="2"/><text x="773" y="334" class="b">3D</text><text x="773" y="368" class="small">gleiche Objekte</text><text x="773" y="395" class="small">gleiche räumliche Höhe</text>
<rect x="390" y="455" width="335" height="125" rx="12" fill="#f2f5f7" stroke="#cbd5dd" stroke-width="2"/><text x="408" y="489" class="b">Front / Seite</text><text x="408" y="523" class="small">nur bei Bedarf</text><text x="408" y="550" class="small">Ansicht wechseln</text>
<rect x="755" y="455" width="335" height="125" rx="12" fill="#f2f5f7" stroke="#cbd5dd" stroke-width="2"/><text x="773" y="489" class="b">Schnitt</text><text x="773" y="523" class="small">späterer Ausbauschritt</text><text x="773" y="550" class="small">Szenenbezug behalten</text><rect x="415" y="645" width="675" height="300" rx="12" fill="#edf2f6" stroke="#aeb9c3" stroke-width="2"/><path d="M720 740l115-52 115 52v140l-115 55-115-55zM720 740l115 65 115-65M835 805v130" fill="none" stroke="#55758d" stroke-width="4"/><path d="M555 900h470M610 850l225 120M1060 850L835 970" stroke="#c3cdd5" stroke-width="2"/><text x="440" y="685" class="small">Gemeinsame Szene · Ansicht wechselt, Daten bleiben gleich</text>
<rect x="1155" y="132" width="617" height="875" rx="14" fill="#fff" stroke="#c6d0d8" stroke-width="2"/><text x="1190" y="178" class="title">Kontext</text><text x="1190" y="207" class="sub">Zum aktuellen Schritt</text><text x="1215" y="308" class="b">Projekt</text><text x="1215" y="337" class="small">eine Szene</text><text x="1215" y="374" class="b">Auswahl</text><text x="1215" y="403" class="small">ansichtsübergreifend</text><text x="1215" y="440" class="b">Höhe</text><text x="1215" y="469" class="small">räumlicher Wert</text><text x="1215" y="506" class="b">Viewer</text><text x="1215" y="535" class="small">keine eigene Datenquelle</text>
<rect x="1190" y="780" width="545" height="175" rx="12" fill="#eef3f6"/><text x="1215" y="820" class="b">Leitlinie</text><text x="1215" y="855" class="small">Ansicht ist kein Modul.</text><text x="1215" y="885" class="small">Keine zweite Objektkopie.</text><text x="1215" y="915" class="small">3D-Umfang später freigeben.</text>
</svg>